<?xml version="1.0" encoding="UTF-8"?>
<svg version="1.1" viewBox="0 0 2000 2000" width="500" height="499" xmlns="http://www.w3.org/2000/svg">
<path transform="translate(1156,512)" d="m0 0h15l23 2 26 5 24 8 18 8 17 10 16 12 16 15 8 8 6 7 8 2 15 3 15 5 13 7 11 8 12 11 8 9 10 15 9 19 5 17 4 23 1 23 18 10 14 10 10 9 8 7 11 13 10 16 8 16 5 13 4 17 2 15v27l-2 14v6l12 14 13 18 10 18 8 21 4 18 1 8v42l-3 17-5 16-6 15-8 15-8 12-11 14-17 17-15 11-16 9-25 10-15 4-8 1 4 13 4 21v30l-4 21-8 22-10 18-9 12-11 12-12 10-16 10-18 7-18 4-17 2h-13l-16-1-9 10-7 8-14 11-16 9-16 6-18 4-8 1h-17l-17-3-21-7-4-2 3 9 15 87 3 14 33 2 84 2 63 3 37 2 60 5 38 4 35 5 26 5 17 5 9 5 2 3v6l-6 5-15 5-23 5-39 6-46 5-66 5-83 4-92 3-50 1-80 1h-28l-3-3v-122l-2-4-6-3h-19l-1 24v106l-1 1h-138l-73-3-38-1-86-4-31-2-35-3-30-3-40-5-26-5-20-5-10-5-3-4 1-6 8-5 15-5 22-5 49-7 57-6 43-3 92-4 14-1 80-2 17-1 7-1 5-24 7-41 7-42 1-2-21 7-14 3-7 1h-18l-19-3-19-7-15-8-14-11-14-14-5-6-4-1-9 1-36-1-15-4-14-6-15-10-14-9-12-11-9-12-8-13-7-14-6-17-3-12-1-12v-17l2-18 5-22 1-3-11-2-16-5-18-7-17-9-13-10-10-9-13-13-11-15-12-20-8-18-6-21-2-13v-39l4-22 5-16 7-16 8-14 10-13 8-10 7-8-3-19v-27l4-24 5-16 7-17 10-17 9-11 7-8 8-8 14-11 16-9 10-5v-18l4-25 5-18 10-21 8-12 9-11 11-11 13-10 16-8 13-4 10-2 10-1 6-4 9-11 12-12 11-9 14-10 18-10 16-7 15-5 21-5 11-2 11-1h41l19 3 15 4 18 7 17 10 12 9 12 11 11 14 9 14 6 13 7-16 8-12 11-13 12-12 14-10 14-8 15-6 19-5 18-3zm-285 49-21 3-19 5-18 8-14 8-12 9-10 9-9 9-10 13-9 10-6 3-5 1-23 1-13 4-11 7-7 7-11 16-5 11-4 17-1 7v11h40l26 3 18 4 15 6 14 7 13 10 14 12 8 10 5 12v7l-4 10-6 7-10 4h-11l-7-3-10-10-7-8-10-9-14-7-13-4-19-3h-41l-19 3-18 6-11 6-16 13-9 10-9 15-7 17-3 16v24l4 20 6 13 9 15 13 19 10 13 9 10 12 10 16 9 12 4 15 3 10 4 7 6 5 9 1 8-4 10-5 7-10 5-11 1-16-3-20-7-16-8-12-7-16-13-12-12-11-14-11-17-8-13-4 4-11 19-6 15-3 17-1 8v15l3 17 5 16 8 16 10 14 11 12 10 9 16 10 18 8 19 5 16 3 4-1 8-8v-2h2v-2l4-2 7-7 15-11 17-10 20-8 18-5 22-3 22-1 25 3 17 4 17 7 16 9 11 9 10 9 10 11 9 14 8 16 5 15 2 20 2 29v19l-1 9-7 11-6 5-6 2h-13l-6-3-4-5-4-9-1-37-2-22-3-13-8-16-11-13-9-8-11-7-15-6-16-4-22-1-17 2-21 6-16 8-10 7-13 11-13 13-12 18-6 13-3 11-1 6v19l4 18 6 18 13 15 7 6 14 9 13 5 10 2h22l2-6 6-26 8-22 5-8 10-5 10-1 10 3 8 7 4 9v14l-12 34v10l6 12 9 10 10 8 14 7 11 3h16l18-4 12-7 10-7 13-2 6-1 2-9 6-40 4-21 5-25 4-33 7-43 11-69 7-45 8-54 4-22 10-68 7-52 2-7h-3l-5 5-14 11-15 10-17 9-18 7-23 6-42 8-9 1-10-3-7-6-4-8-1-3v-11l4-10 6-5 11-4 23-3 23-4 21-7 16-8 11-7 13-10 11-12 9-14 5-14 2-11v-137l-4-15-8-16-8-10-9-9-10-7-16-8-13-4-17-3zm276 0-20 4-13 5-12 7-9 7-5 4-10 13-8 16-4 14-1 10v124l3 17 6 14 8 12 10 11 13 10 16 10 17 8 20 6 27 5 19 3 8 4 7 8 2 5v13l-5 10-6 5-8 3h-13l-40-8-24-7-16-6-16-8-16-10-16-12-7-6h-2l3 9 4 24 2 8 3 28 8 53 10 66 9 54 9 60 7 45 10 64 7 41 6 34 2 4h12l12 6 14 8 12 4 5 1h21l13-3 14-8 10-9 6-8 4-8 1-7-3-12-9-24-1-4v-15l5-10 7-5 5-2h15l8 4 6 8 10 28 7 26 1 1 16 1 16-3 12-5 12-8 9-8 10-13 6-12 5-17 1-9v-15l-2-14-5-15-6-10-9-11-9-10-8-7-16-12-14-8-15-6-19-4-21-1-16 2-16 5-16 8-10 8-9 9-10 16-5 14-1 6-1 57-6 12-6 5-4 2-12 1-8-2-6-4-5-8-2-7-1-16v-18l1-20 3-19 7-19 8-16 11-15 9-10 8-8 13-9 12-7 18-7 21-5 16-2h30l20 3 19 5 21 9 15 9 14 10 15 14 9 9 16-2 17-4 14-5 17-9 14-11 10-10 10-13 8-13 6-13 4-16 2-18-2-27-4-15-5-12-10-17-4-2-7 10-9 15-11 15-9 10-1 3-4 2v2l-4 2-10 8-14 9-15 7-21 7-15 3h-10l-9-3-7-6-4-10v-12l5-10 8-6 11-4 18-3 13-5 11-7 10-9 11-11 13-19 10-14 7-11 6-14 4-21v-21l-3-17-5-15-7-13-9-12-9-9-14-10-14-7-13-4-21-3h-35l-17 2-19 5-14 7-10 9-7 7-7 8-5 4-12 3-16-2-36-10-15-6-12-7-10-9-7-8-8-13-6-14-4-16v-28l4-17 8-21 9-17 8-8 12-4 10 1 8 4 5 5 3 5 1 4v10l-4 9-10 18-4 10-2 9v11l4 13 6 9 9 9 11 5 16 4 12 1 10-8 13-10 16-9 19-7 18-4 19-2h43l1-2-2-17-4-15-8-16-8-11-9-9-10-6-13-4-23-1-9-4-11-11-9-11-7-7-5-6-14-11-11-7-17-9-21-7-21-4-7-1zm-132 360v40l2 1h15l2-3v-29l-1-9zm2 90-3 1v55l1 1h19l1-1v-52l-2-4zm0 109-3 1-1 4v49l1 6 2 1h18l1-1 1-7v-47l-1-5-3-1zm-3 113-1 4v56l1 1h19l3-3v-53l-1-5zm-1 119-1 1v58h24l1-1v-58z" fill="#255166"/>
<path transform="translate(1023,805)" d="m0 0 4 2 10 19 7 11 8 9 6 7-1 2-5-3 4 9 4 24 2 8 3 28 8 53 10 66 9 54 9 60 7 45 10 64 7 41 6 34 1 4-7 6h-2l-2 5-2 7v13l4 9 9 9 13 8 2 10 15 87 3 14 33 2 84 2 63 3 37 2 60 5 38 4 35 5 26 5 17 5 9 5 2 3v6l-6 5-15 5-23 5-39 6-46 5-66 5-83 4-92 3-50 1-80 1h-28l-3-3v-122l-2-4-6-3h-19l-1 24v106l-1 1h-138l-73-3-38-1-86-4-31-2-35-3-30-3-40-5-26-5-20-5-10-5-3-4 1-6 8-5 15-5 22-5 49-7 57-6 43-3 92-4 14-1 80-2 17-1 7-1 5-24 7-41 7-42 1-2-2-1 19-12 7-8 3-5 1-5v-8l-4-10-5-5-5-4-5-1v-1h6l5-37 6-33 5-25 4-33 7-43 11-69 7-45 8-54 4-22 10-68 7-52 2-6-2-1-2 4-1-2 6-8 5-6 5-5 9-15zm-8 116v40l2 1h15l2-3v-29l-1-9zm2 90-3 1v55l1 1h19l1-1v-52l-2-4zm0 109-3 1-1 4v49l1 6 2 1h18l1-1 1-7v-47l-1-5-3-1zm-3 113-1 4v56l1 1h19l3-3v-53l-1-5zm-1 119-1 1v58h24l1-1v-58z" fill="#64ACBF"/>
<path transform="translate(1023,805)" d="m0 0 4 2 10 19 7 11 8 9 6 7-1 2-5-3 4 9 4 24 2 8 3 28 8 53 10 66 9 54 9 60 7 45 10 64 7 41 5 27v7l-5 3-4 1-1 4-4 2-6 1-5-5-4-1-1 2-6-2h-3l-5 1-7 1-6-5h-16l-1 8-2 6h-3l1 3-1 2-7-1-1 3-4 1-1 12h-1v-22l-24 1-1 58h-1l-1-54-3-1v-2h-2l-3-8-3-1-1-2-10-1-6 1h-2l-3 2-12 1-8 6-2 3h-8l-7 1-3-1v-2h-2v-3l-4-1-5-6v-2l-3-1-3-4 2-18 5-30 6-32 2-10 4-33 7-43 11-69 7-45 8-54 4-22 10-68 7-52 2-6-2-1-2 4-1-2 6-8 5-6 5-5 9-15zm-8 116v40l2 1h15l2-3v-29l-1-9zm2 90-3 1v55l1 1h19l1-1v-52l-2-4zm0 109-3 1-1 4v49l1 6 2 1h18l1-1 1-7v-47l-1-5-3-1zm-3 113-1 4v56l1 1h19l3-3v-53l-1-5z" fill="#87C3D2"/>
<path transform="translate(1164,1510)" d="m0 0 34 2 84 2 63 3 37 2 60 5 38 4 35 5 26 5 17 5 9 5 2 3v6l-6 5-15 5-23 5-39 6-46 5-66 5-83 4-92 3h-23l2-1-5-23-9-54z" fill="#A9D3E3"/>
<path transform="translate(886,1502)" d="m0 0 2 2-3 23-7 37-4 24v6l32 1v1h-35l-73-3-38-1-86-4-31-2-35-3-30-3-40-5-26-5-20-5-10-5-3-4 1-6 8-5 15-5 22-5 49-7 57-6 43-3 92-4 14-1 80-2 17-1 7-1z" fill="#A9D3E3"/>
<path transform="translate(698,828)" d="m0 0h12l8 3 6 5 5 10v18l-2 14v26l3 14 6 15 7 11 8 10 12 10 11 6 12 5 8 2 10 1h15l33 1 19 3 15 5 17 9 11 8 10 9 8 7 8 10 6 11 1 2v12l-5 10-8 8-10 3-11-1-6-4-5-5-11-12-7-8-12-9-15-6-15-3-14-1h-36l-17-3-15-5-17-8-14-10-10-9-8-8-13-17-12-23-7-21-3-15v-31l2-23 3-12 6-8 5-4z" fill="#255166"/>
<path transform="translate(1338,828)" d="m0 0h12l8 3 5 5 5 10 2 16 2 20v22l-2 14-6 21-7 16-9 15-8 10-11 12-13 11-14 9-15 7-16 5-18 3-48 1-17 4-16 8-11 9-10 12-7 8-5 4-5 2h-15l-9-6-6-10-1-3v-13l6-12 10-12 8-7 11-10 15-10 16-7 14-4 12-2 14-1h36l13-2 14-5 13-7 10-9h2l2-4 7-8 9-15 5-16 2-15-1-22-2-12v-16l4-9 8-7z" fill="#265267"/>
<path transform="translate(857,633)" d="m0 0h13l8 3 6 5 9 14 10 22 4 12 2 14v22l-3 15-6 15-9 15-9 11-9 6-10 2-11-2-8-7-4-6-2-7v-7l4-10 6-8 8-11 3-8v-19l-5-14-13-21-2-5-1-9 4-11 5-6z" fill="#255267"/>
<path transform="translate(1024,819)" d="m0 0 3 2 2 11 5 10v3h-7l1 5h2v5h-4l-1-4-2 5-3 1-1 2-3 2-5-3-3-6-2-2 7-11 4-7 4-12z" fill="#A9D3E3"/>
<path transform="translate(1023,805)" d="m0 0 4 2 10 19 7 11 8 9 6 7-1 2-3-2v-2l-4-1-7-9-8-11-9-17h-3l-5 8-8 16-9 10-2 3h-2v2l-3 1-4 4 2-5 9-11 5-5 9-15z" fill="#64ACBF"/>
<path transform="translate(886,1502)" d="m0 0 2 2-3 23-7 37-4 24v6l32 1v1h-35v-10l3-16 9-51 2-13z" fill="#87C3D2"/>
<path transform="translate(886,1502)" d="m0 0 2 2-3 23-2 9h-2l1-11 3-19z" fill="#89C4D3"/>
</svg>
